<?xml version="1.0" encoding="UTF-8"?>
<svg id="Camada_1" data-name="Camada 1" xmlns="http://www.w3.org/2000/svg" version="1.1" viewBox="0 0 122.8 19">
  <defs>
    <style>
      .cls-1 {
        fill: #000;
      }

      .cls-1, .cls-2 {
        stroke-width: 0px;
      }

      .cls-2 {
        fill: #fff;
      }
    </style>
  </defs>
  <rect class="cls-1" width="122.8" height="19" rx="5" ry="5"/>
  <g>
    <path class="cls-2" d="M11.2,8.7v1.2c0,.1,0,.3-.2.4-.1.1-.2.2-.4.2h-3.6v.3c0,.2,0,.3.2.4l.3.2c.2.1.3.2.5.2h2.6c.1,0,.3,0,.4.1.1.1.2.2.2.4s0,.3-.2.4c-.1.1-.2.2-.4.2h-2.7c-.2,0-.4,0-.6-.1-.2,0-.3-.2-.4-.2l-.5-.4c-.1-.1-.3-.3-.4-.5s-.1-.4-.1-.6v-2.3c0-.1,0-.3.2-.5.1-.2.2-.4.4-.5l.4-.3c.3-.2.6-.3.9-.3h1.4c.4,0,.7.2,1,.5l.4.4c.3.2.4.6.4,1.1ZM7.1,8.6v.8h3.1v-.7c0-.2,0-.3-.2-.4l-.3-.3c-.2-.1-.3-.2-.4-.2h-1.3c-.2,0-.3,0-.4.2l-.3.2c-.1.1-.2.2-.2.4Z"/>
    <path class="cls-2" d="M13.5,12.2v-4.9c0-.1,0-.3.1-.4s.2-.1.4-.1c.3,0,.4.1.5.4.3-.3.6-.4,1-.4s.7.2,1,.5c.3-.4.7-.5,1.1-.5s.6.1.8.3c.2.2.4.5.4.9v4.2c.1.1,0,.3,0,.4-.1.1-.2.2-.4.2s-.3,0-.4-.2-.2-.2-.2-.4v-4c-.1-.2-.2-.3-.3-.3s-.1,0-.2,0l-.6.5v3.7c0,.1,0,.3-.1.4-.1,0-.2.1-.4.1s-.3,0-.4-.1c-.1,0-.2-.2-.2-.4v-4.1c0-.2,0-.3-.2-.3s-.1,0-.2,0l-.7.6v3.6c0,.1,0,.3-.1.4s-.2.2-.4.2-.3,0-.4-.2c-.1-.1-.2-.2-.2-.4Z"/>
    <path class="cls-2" d="M22.2,12.1v2.3c0,.1,0,.3-.1.4s-.2.2-.4.2-.3,0-.4-.2c-.1-.1-.2-.2-.2-.4v-7.3c0-.1,0-.3.2-.4.1-.1.2-.2.4-.2s.3,0,.4.2c.1.1.2.2.2.4v.3c.5-.6,1-.8,1.5-.8h.2c.4,0,.7.1,1,.4l.9.7c.4.3.6.7.6,1.2v1.6c0,.5-.2.9-.6,1.3l-.8.7c-.3.3-.6.4-1,.4h-.2c-.4,0-.7-.1-1-.4l-.4-.4ZM23.6,11.9h.3c.1,0,.3,0,.4-.2l.8-.7c.1-.1.2-.2.2-.4v-1.7c0-.2,0-.3-.2-.4l-.9-.7c0,0-.2-.1-.3-.1h-.3c-.1,0-.3,0-.4.3l-.8.8c-.1.1-.2.3-.2.5v1.3c0,.2,0,.3.2.5l.7.7c.2.2.3.3.5.3Z"/>
    <path class="cls-2" d="M28.7,12.2v-4.9c0-.1,0-.3.1-.4,0-.1.2-.2.4-.2s.3,0,.4.2.1.2.1.4v.6l.8-.7c.3-.3.7-.4,1-.4h.8c.4,0,.8.2,1.1.5.3.3.5.7.5,1.1v.3c0,.1,0,.3-.1.4,0,.1-.2.2-.4.2s-.3,0-.4-.1c-.1,0-.1-.2-.1-.4v-.3c0-.1,0-.3-.1-.4s-.2-.1-.4-.1h-.7c-.1,0-.3,0-.5.2l-1.5,1.3v2.9c0,.1,0,.3-.2.4s-.2.1-.4.1-.3,0-.4-.1c-.1,0-.1-.2-.1-.4Z"/>
    <path class="cls-2" d="M41.4,8.7v1.2c0,.1,0,.3-.2.4-.1.1-.2.2-.4.2h-3.6v.3c0,.2,0,.3.2.4l.3.2c.2.1.3.2.5.2h2.6c.1,0,.3,0,.4.1.1.1.2.2.2.4s0,.3-.2.4-.2.2-.4.2h-2.7c-.2,0-.4,0-.6-.1-.2,0-.3-.2-.4-.2l-.5-.4c-.1-.1-.3-.3-.4-.5s-.1-.4-.1-.6v-2.3c0-.1,0-.3.2-.5.1-.2.2-.4.4-.5l.4-.3c.3-.2.6-.3.9-.3h1.4c.4,0,.7.2,1,.5l.4.4c.3.2.4.6.4,1.1ZM37.3,8.6v.8h3.1v-.7c0-.2,0-.3-.2-.4l-.3-.3c-.2-.1-.3-.2-.4-.2h-1.3c-.2,0-.3,0-.4.2l-.3.2c-.1.1-.2.2-.2.4Z"/>
    <path class="cls-2" d="M45.2,6.8h2.4c.4,0,.7.1,1,.3.3.2.4.4.4.6s0,.3-.2.4c-.1,0-.2.1-.3.1s-.3,0-.4-.2-.3-.2-.4-.2h-2.3c-.2,0-.3,0-.3.3s0,.2.2.3l2.7,1.2c.3.1.5.3.7.6.2.3.3.6.3.9s-.2.8-.5,1.1c-.3.3-.7.5-1.1.5h-2.1c-.4,0-.7-.1-1-.3s-.5-.4-.5-.6,0-.3.1-.4c0-.1.2-.2.4-.2s.3,0,.4.2.4.2.6.2h1.9c.2,0,.3,0,.4-.2.1-.1.2-.2.2-.4,0-.2-.1-.4-.3-.5l-2.8-1.2c-.3-.1-.5-.3-.6-.5-.1-.2-.2-.5-.2-.7,0-.4.1-.7.4-1,.3-.3.6-.4.9-.4Z"/>
    <path class="cls-2" d="M52.9,9h2c.1,0,.3,0,.5,0v-.7c0-.1,0-.3-.2-.4,0,0-.2-.1-.4-.1h-2c-.1,0-.3,0-.4-.2-.1-.1-.2-.2-.2-.4s0-.3.1-.4.2-.1.4-.1h1.9c.4,0,.8.1,1.1.4.3.3.5.7.5,1.1v3.8c.1.1,0,.3,0,.4s-.2.1-.4.1-.3,0-.4-.1-.2-.2-.2-.4l-.9.5h-1.7c-.4,0-.8-.2-1.1-.5-.3-.3-.5-.7-.5-1.1v-.6c0-.4.2-.8.5-1.1.3-.3.7-.5,1.1-.5ZM55.4,11v-.4c0-.1,0-.3-.2-.4,0,0-.2-.1-.4-.1h-2c-.1,0-.3,0-.4.1,0,0-.1.2-.1.4v.6c0,.1,0,.3.2.4.1.1.2.2.4.2h1.4l1.1-.7Z"/>
    <path class="cls-2" d="M62.1,14.9h-2.2c-.1,0-.3,0-.4-.1s-.1-.2-.1-.4,0-.3.1-.4.2-.1.4-.1h2.2c.1,0,.3,0,.4-.2l.3-.3c.1,0,.2-.2.2-.4v-1.6c-.5.5-.9.7-1.4.7h-.8c-.4,0-.8-.1-1.1-.4l-.4-.3c-.1-.1-.2-.3-.3-.5s-.1-.4-.1-.6v-1.7c0-.2,0-.5.1-.7,0-.2.2-.4.3-.5l.4-.4c.3-.3.7-.4,1.1-.4h.7c.4,0,.8.1,1.1.4l.4.3v-.2c0-.1,0-.3.1-.4.1-.1.2-.2.4-.2s.3,0,.4.1c.1,0,.2.2.2.4v5.7c0,.4-.2.8-.5,1.1l-.4.4c-.1,0-.3.2-.4.2s-.4.1-.5.1ZM61.5,7.8h-.7c-.2,0-.3,0-.4.2l-.3.3c-.1.1-.2.2-.2.4v1.7c0,.1,0,.3.2.4l.3.3c.1,0,.2.1.3.1h.8c.1,0,.3,0,.4-.2l.8-.7c.1-.1.2-.2.2-.4v-.8c0-.2,0-.3-.2-.5l-.8-.7c-.1-.1-.3-.2-.4-.2Z"/>
    <path class="cls-2" d="M71.6,8.7v1.2c0,.1,0,.3-.2.4-.1.1-.2.2-.4.2h-3.6v.3c0,.2,0,.3.2.4l.3.2c.2.1.3.2.5.2h2.6c.1,0,.3,0,.4.1.1.1.2.2.2.4s0,.3-.2.4-.2.2-.4.2h-2.7c-.2,0-.4,0-.6-.1s-.3-.2-.4-.2l-.5-.4c-.1-.1-.3-.3-.4-.5s-.1-.4-.1-.6v-2.3c0-.1,0-.3.2-.5.1-.2.2-.4.4-.5l.4-.3c.3-.2.6-.3.9-.3h1.4c.4,0,.7.2,1,.5l.4.4c.3.2.4.6.4,1.1ZM67.5,8.6v.8h3.1v-.7c0-.2,0-.3-.2-.4l-.3-.3c-.2-.1-.3-.2-.4-.2h-1.3c-.2,0-.3,0-.4.2l-.3.2c-.1.1-.2.2-.2.4Z"/>
    <path class="cls-2" d="M76.4,8l-1.4.9v3.3c0,.1,0,.3-.2.4-.1.1-.2.2-.4.2s-.3,0-.4-.2-.2-.2-.2-.4v-4.9c0-.1,0-.3.1-.4,0-.1.2-.2.4-.2s.3,0,.4.2c.1.1.2.2.2.4v.3l.9-.6c.3-.2.7-.3,1.1-.3h.5c.4,0,.8.1,1.1.4.3.3.5.6.5,1.1v3.9c.1.1,0,.3,0,.4-.1.1-.2.2-.4.2s-.3,0-.4-.1c-.1,0-.2-.2-.2-.4l-.2-3.8c0-.4-.2-.5-.6-.5h-.5c-.2,0-.3,0-.5.2Z"/>
    <path class="cls-2" d="M86.7,8.7v1.2c0,.1,0,.3-.2.4-.1.1-.2.2-.4.2h-3.6v.3c0,.2,0,.3.2.4l.3.2c.2.1.3.2.5.2h2.6c.1,0,.3,0,.4.1.1.1.2.2.2.4s0,.3-.2.4-.2.2-.4.2h-2.7c-.2,0-.4,0-.6-.1s-.3-.2-.4-.2l-.5-.4c-.1-.1-.3-.3-.4-.5s-.1-.4-.1-.6v-2.3c0-.1,0-.3.2-.5.1-.2.2-.4.4-.5l.4-.3c.3-.2.6-.3.9-.3h1.4c.4,0,.7.2,1,.5l.4.4c.3.2.4.6.4,1.1ZM82.6,8.6v.8h3.1v-.7c0-.2,0-.3-.2-.4l-.3-.3c-.2-.1-.3-.2-.4-.2h-1.3c-.2,0-.3,0-.4.2l-.3.2c-.1.1-.2.2-.2.4Z"/>
    <path class="cls-2" d="M89.1,12.2v-4.9c0-.1,0-.3.1-.4,0-.1.2-.2.4-.2s.3,0,.4.2c0,.1.1.2.1.4v.6l.8-.7c.3-.3.7-.4,1-.4h.8c.4,0,.8.2,1.1.5.3.3.5.7.5,1.1v.3c0,.1,0,.3-.1.4,0,.1-.2.2-.4.2s-.3,0-.4-.1-.1-.2-.1-.4v-.3c0-.1,0-.3-.1-.4s-.2-.1-.4-.1h-.7c-.1,0-.3,0-.5.2l-1.5,1.3v2.9c0,.1,0,.3-.2.4-.1,0-.2.1-.4.1s-.3,0-.4-.1-.1-.2-.1-.4Z"/>
    <path class="cls-2" d="M100.8,12.7h-3.1c-.1,0-.3,0-.4-.1,0,0-.1-.2-.1-.4s0-.3.1-.4.2-.2.4-.2h1v-3.8h-1c-.1,0-.3,0-.4-.2s-.1-.2-.1-.4,0-.3.1-.4c0-.1.2-.2.4-.2h1.6c.1,0,.3,0,.4.2,0,.1.1.2.1.4v4.3h1c.1,0,.3,0,.4.1s.2.2.2.4,0,.3-.2.4c-.1,0-.2.1-.4.1ZM98.7,4.1h.5c.1,0,.3,0,.4.1,0,0,.1.2.1.4v.4c0,.1,0,.3-.1.4-.1.1-.2.2-.4.2h-.5c-.1,0-.3,0-.4-.2,0-.1-.1-.2-.1-.4v-.5c0-.1,0-.3.2-.4s.2-.1.4-.1Z"/>
    <path class="cls-2" d="M108.9,12.7h-2.2c-.4,0-.7-.1-1-.3l-1-.9c-.3-.3-.5-.6-.5-1.1v-1.3c0-.4.2-.8.5-1.1l.9-.8c.3-.2.6-.4.9-.4h2.3c.1,0,.3,0,.4.1s.1.2.1.4,0,.3-.1.4-.2.1-.4.1h-2.2c-.1,0-.3,0-.4.2l-.8.7c-.1.1-.2.3-.2.5v1.3c0,.1,0,.2.2.3l.9.8c.1.1.3.2.5.2h2.1c.1,0,.3,0,.4.1.1.1.2.2.2.4s0,.3-.1.4c-.1,0-.2.1-.4.1Z"/>
    <path class="cls-2" d="M113.3,9h2c.1,0,.3,0,.5,0v-.7c0-.1,0-.3-.2-.4,0,0-.2-.1-.4-.1h-2c-.1,0-.3,0-.4-.2-.1-.1-.2-.2-.2-.4s0-.3.1-.4.2-.1.4-.1h1.9c.4,0,.8.1,1.1.4.3.3.5.7.5,1.1v3.8c.1.1,0,.3,0,.4s-.2.1-.4.1-.3,0-.4-.1-.2-.2-.2-.4l-.9.5h-1.7c-.4,0-.8-.2-1.1-.5-.3-.3-.5-.7-.5-1.1v-.6c0-.4.2-.8.5-1.1.3-.3.7-.5,1.1-.5ZM115.8,11v-.4c0-.1,0-.3-.2-.4,0,0-.2-.1-.4-.1h-2c-.1,0-.3,0-.4.1,0,0-.1.2-.1.4v.6c0,.1,0,.3.2.4.1.1.2.2.4.2h1.4l1.1-.7Z"/>
  </g>
</svg>