<?xml version="1.0" encoding="UTF-8"?>
<svg id="Camada_1" data-name="Camada 1" xmlns="http://www.w3.org/2000/svg" version="1.1" viewBox="0 0 159.4 26">
  <defs>
    <style>
      .cls-1 {
        fill: #000;
      }

      .cls-1, .cls-2 {
        stroke-width: 0px;
      }

      .cls-2 {
        fill: #fff;
      }
    </style>
  </defs>
  <rect class="cls-1" y="1.3" width="159.4" height="24.7" rx="5" ry="5"/>
  <g>
    <path class="cls-2" d="M14.6,12v1.6c0,.2,0,.3-.2.5-.1.1-.3.2-.5.2h-4.7v.4c0,.2,0,.4.3.6l.4.3c.2.2.4.2.6.2h3.4c.2,0,.3,0,.5.2.1.1.2.3.2.5s0,.3-.2.5c-.1.1-.3.2-.5.2h-3.5c-.2,0-.5,0-.7-.1-.3,0-.4-.2-.6-.3l-.6-.5c-.2-.1-.3-.4-.5-.6s-.2-.5-.2-.7v-3c0-.2,0-.4.2-.7.1-.3.3-.5.5-.7l.6-.4c.4-.3.8-.4,1.2-.4h1.9c.5,0,.9.2,1.3.6l.5.5c.4.3.5.8.5,1.4ZM9.2,11.9v1h4v-.9c0-.2,0-.4-.2-.6l-.4-.3c-.2-.2-.4-.2-.5-.2h-1.7c-.2,0-.4,0-.6.2l-.4.3c-.2.1-.3.3-.3.5Z"/>
    <path class="cls-2" d="M17.5,16.5v-6.3c0-.2,0-.3.2-.5s.3-.2.5-.2c.3,0,.6.2.6.5.4-.3.8-.5,1.2-.5s1,.2,1.3.7c.4-.5.9-.7,1.4-.7s.8.1,1.1.4.5.7.5,1.1l.2,5.4c0,.2,0,.3-.2.5-.1.1-.3.2-.5.2s-.3,0-.5-.2c-.1-.1-.2-.3-.2-.5l-.2-5.2c0-.3,0-.4-.3-.4s-.2,0-.3.1l-.8.7v4.9c0,.2,0,.3-.2.5s-.3.2-.5.2-.3,0-.5-.2c-.1-.1-.2-.3-.2-.5v-5.3c0-.2,0-.3-.3-.3s-.2,0-.3.1l-1,.8v4.7c0,.2,0,.3-.2.5-.1.1-.3.2-.5.2s-.3,0-.5-.2c-.1-.1-.2-.3-.2-.5Z"/>
    <path class="cls-2" d="M28.8,16.4v2.9c0,.2,0,.4-.2.5s-.3.2-.5.2-.3,0-.5-.2-.2-.3-.2-.5v-9.5c0-.2,0-.3.2-.5s.3-.2.5-.2.3,0,.5.2c.1.1.2.3.2.5v.4c.6-.7,1.3-1.1,1.9-1.1h.3c.5,0,.9.2,1.3.5l1.1,1c.5.4.7,1,.7,1.6v2.1c0,.7-.3,1.2-.8,1.7l-1.1.9c-.4.3-.8.5-1.4.5h-.3c-.5,0-1-.2-1.3-.5l-.5-.5ZM30.7,16.1h.3c.2,0,.3,0,.5-.2l1-.9c.2-.1.3-.3.3-.6v-2.1c0-.2,0-.4-.3-.6l-1.1-1c-.1-.1-.3-.2-.4-.2h-.4c-.1,0-.3.1-.6.4l-1,1c-.2.2-.3.4-.3.6v1.7c0,.2,0,.4.3.6l1,1c.2.2.4.4.6.4Z"/>
    <path class="cls-2" d="M37.2,16.5v-6.3c0-.2,0-.3.2-.5.1-.1.3-.2.5-.2s.3,0,.5.2c.1.1.2.3.2.5v.8l1.1-.9c.4-.4.9-.6,1.3-.6h1c.5,0,1,.2,1.4.6s.6.9.6,1.4v.4c0,.2,0,.4-.2.5s-.3.2-.5.2-.3,0-.5-.2c-.1-.1-.2-.3-.2-.5v-.4c0-.2,0-.3-.2-.5s-.3-.2-.5-.2h-.9c-.2,0-.4,0-.6.3l-1.9,1.6v3.7c0,.2,0,.3-.2.5-.1.1-.3.2-.5.2s-.3,0-.5-.2c-.1-.1-.2-.3-.2-.5Z"/>
    <path class="cls-2" d="M53.7,12v1.6c0,.2,0,.3-.2.5-.1.1-.3.2-.5.2h-4.7v.4c0,.2,0,.4.3.6l.4.3c.2.2.4.2.6.2h3.4c.2,0,.3,0,.5.2.1.1.2.3.2.5s0,.3-.2.5c-.1.1-.3.2-.5.2h-3.5c-.2,0-.5,0-.7-.1-.3,0-.4-.2-.6-.3l-.6-.5c-.2-.1-.3-.4-.5-.6s-.2-.5-.2-.7v-3c0-.2,0-.4.2-.7.1-.3.3-.5.5-.7l.6-.4c.4-.3.8-.4,1.2-.4h1.9c.5,0,.9.2,1.3.6l.5.5c.4.3.5.8.5,1.4ZM48.4,11.9v1h4v-.9c0-.2,0-.4-.2-.6l-.4-.3c-.2-.2-.4-.2-.5-.2h-1.7c-.2,0-.4,0-.6.2l-.4.3c-.2.1-.3.3-.3.5Z"/>
    <path class="cls-2" d="M58.7,9.5h3c.5,0,.9.1,1.3.4.4.3.5.6.5.8s0,.3-.2.5-.3.2-.4.2-.4,0-.6-.3-.4-.3-.5-.3h-3c-.3,0-.4.1-.4.4s0,.3.3.4l3.5,1.6c.4.2.7.4.9.8.2.4.3.7.3,1.2s-.2,1.1-.6,1.4c-.4.4-.9.6-1.4.6h-2.7c-.5,0-.9-.1-1.3-.4-.4-.3-.6-.6-.6-.8s0-.3.2-.5c.1-.1.3-.2.5-.2s.3,0,.5.3c.2.2.5.3.8.3h2.5c.2,0,.4,0,.5-.2.1-.2.2-.3.2-.5,0-.3-.1-.5-.4-.6l-3.6-1.6c-.3-.2-.6-.4-.8-.7-.2-.3-.3-.6-.3-.9,0-.5.2-.9.5-1.2.3-.3.7-.5,1.2-.5Z"/>
    <path class="cls-2" d="M68.6,12.3h2.6c.1,0,.3,0,.6,0v-.9c0-.2,0-.3-.2-.5-.1-.1-.3-.2-.5-.2h-2.5c-.2,0-.3,0-.5-.2-.1-.1-.2-.3-.2-.5s0-.3.2-.5.3-.2.5-.2h2.5c.5,0,1,.2,1.4.6s.6.9.6,1.4l.2,5c0,.2,0,.3-.2.5-.1.1-.3.2-.5.2s-.4,0-.5-.2c-.1-.1-.2-.3-.2-.5l-1.1.7h-2.3c-.6,0-1-.2-1.4-.6-.4-.4-.6-.9-.6-1.4v-.8c0-.6.2-1,.6-1.4.4-.4.9-.6,1.4-.6ZM71.9,14.9v-.6c0-.2-.1-.3-.2-.5s-.3-.2-.5-.2h-2.6c-.2,0-.3,0-.5.2-.1.1-.2.3-.2.5v.7c0,.2,0,.3.2.5.1.1.3.2.5.2h1.9l1.5-.8Z"/>
    <path class="cls-2" d="M80.6,20h-2.9c-.2,0-.3,0-.5-.2s-.2-.3-.2-.5,0-.3.2-.5c.1-.1.3-.2.5-.2h2.9c.2,0,.3,0,.5-.2l.5-.4c.2-.1.2-.3.2-.5v-2c-.6.6-1.2.9-1.8.9h-1c-.5,0-1-.2-1.4-.5l-.5-.4c-.2-.1-.3-.3-.4-.6-.1-.3-.2-.5-.2-.8v-2.2c0-.3,0-.6.2-.9s.3-.5.4-.6l.5-.5c.4-.3.9-.5,1.4-.5h1c.5,0,1,.2,1.4.6l.5.4v-.3c0-.2,0-.3.2-.5.1-.1.3-.2.5-.2s.3,0,.5.2.2.3.2.5v7.5c0,.6-.2,1-.7,1.4l-.5.5c-.1.1-.3.2-.6.3-.3,0-.5.1-.7.1ZM79.8,10.8h-.9c-.2,0-.4,0-.6.2l-.4.3c-.2.1-.2.3-.2.5v2.2c0,.2,0,.3.3.5l.4.4c.1.1.3.2.4.2h1.1c.2,0,.3,0,.5-.2l1.1-.9c.2-.1.2-.3.2-.5v-1c0-.2,0-.4-.3-.6l-1.1-.9c-.2-.1-.3-.2-.6-.2Z"/>
    <path class="cls-2" d="M92.9,12v1.6c0,.2,0,.3-.2.5-.1.1-.3.2-.5.2h-4.7v.4c0,.2,0,.4.3.6l.4.3c.2.2.4.2.6.2h3.4c.2,0,.3,0,.5.2.1.1.2.3.2.5s0,.3-.2.5c-.1.1-.3.2-.5.2h-3.5c-.2,0-.5,0-.7-.1-.3,0-.4-.2-.6-.3l-.6-.5c-.2-.1-.3-.4-.5-.6s-.2-.5-.2-.7v-3c0-.2,0-.4.2-.7.1-.3.3-.5.5-.7l.6-.4c.4-.3.8-.4,1.2-.4h1.9c.5,0,.9.2,1.3.6l.5.5c.4.3.5.8.5,1.4ZM87.6,11.9v1h4v-.9c0-.2,0-.4-.2-.6l-.4-.3c-.2-.2-.4-.2-.5-.2h-1.7c-.2,0-.4,0-.6.2l-.4.3c-.2.1-.3.3-.3.5Z"/>
    <path class="cls-2" d="M99.2,11l-1.8,1.2v4.3c0,.2,0,.3-.2.5s-.3.2-.5.2-.3,0-.5-.2-.2-.3-.2-.5v-6.3c0-.2,0-.3.2-.5.1-.1.3-.2.5-.2s.3,0,.5.2.2.3.2.5v.4l1.2-.7c.4-.3.9-.4,1.4-.4h.6c.5,0,1,.2,1.4.6.4.4.6.8.6,1.4l.2,5c0,.2,0,.3-.2.5-.1.1-.3.2-.5.2s-.3,0-.5-.2c-.1-.1-.2-.3-.2-.5l-.2-5c0-.5-.3-.7-.7-.7h-.7c-.2,0-.4,0-.7.2Z"/>
    <path class="cls-2" d="M112.5,12v1.6c0,.2,0,.3-.2.5-.1.1-.3.2-.5.2h-4.7v.4c0,.2,0,.4.3.6l.4.3c.2.2.4.2.6.2h3.4c.2,0,.3,0,.5.2.1.1.2.3.2.5s0,.3-.2.5c-.1.1-.3.2-.5.2h-3.5c-.2,0-.5,0-.7-.1-.3,0-.4-.2-.6-.3l-.6-.5c-.2-.1-.3-.4-.5-.6s-.2-.5-.2-.7v-3c0-.2,0-.4.2-.7.1-.3.3-.5.5-.7l.6-.4c.4-.3.8-.4,1.2-.4h1.9c.5,0,.9.2,1.3.6l.5.5c.4.3.5.8.5,1.4ZM107.2,11.9v1h4v-.9c0-.2,0-.4-.2-.6l-.4-.3c-.2-.2-.4-.2-.5-.2h-1.7c-.2,0-.4,0-.6.2l-.4.3c-.2.1-.3.3-.3.5Z"/>
    <path class="cls-2" d="M115.6,16.5v-6.3c0-.2,0-.3.2-.5.1-.1.3-.2.5-.2s.3,0,.5.2c.1.1.2.3.2.5v.8l1.1-.9c.4-.4.9-.6,1.3-.6h1c.5,0,1,.2,1.4.6s.6.9.6,1.4v.4c0,.2,0,.4-.2.5-.1.1-.3.2-.5.2s-.3,0-.5-.2c-.1-.1-.2-.3-.2-.5v-.4c0-.2,0-.3-.2-.5-.1-.1-.3-.2-.5-.2h-.9c-.2,0-.4,0-.6.3l-1.9,1.6v3.7c0,.2,0,.3-.2.5-.1.1-.3.2-.5.2s-.3,0-.5-.2-.2-.3-.2-.5Z"/>
    <path class="cls-2" d="M130.8,17.1h-4.1c-.2,0-.3,0-.5-.2s-.2-.3-.2-.5,0-.3.2-.5c.1-.1.3-.2.5-.2h1.4v-5h-1.3c-.2,0-.3,0-.5-.2-.1-.1-.2-.3-.2-.5s0-.3.2-.5c.1-.1.3-.2.5-.2h2c.2,0,.3,0,.5.2.1.1.2.3.2.5v5.6h1.3c.2,0,.3,0,.5.2.1.1.2.3.2.5s0,.3-.2.5c-.1.1-.3.2-.5.2ZM128.1,6h.7c.2,0,.3,0,.5.2.1.1.2.3.2.5v.6c0,.2,0,.3-.2.5-.1.1-.3.2-.5.2h-.7c-.2,0-.3,0-.5-.2-.1-.1-.2-.3-.2-.5v-.6c0-.2,0-.3.2-.5s.3-.2.5-.2Z"/>
    <path class="cls-2" d="M141.3,17.1h-2.8c-.5,0-.9-.2-1.3-.5l-1.3-1.1c-.4-.3-.6-.8-.6-1.4v-1.7c0-.6.2-1.1.7-1.5l1.2-1c.4-.3.8-.5,1.2-.5h3c.2,0,.3,0,.5.2.1.1.2.3.2.5s0,.3-.2.5c-.1.1-.3.2-.5.2h-2.9c-.2,0-.4,0-.5.2l-1.1.9c-.2.1-.3.3-.3.6v1.6c0,.2,0,.3.2.4l1.2,1c.1.1.3.2.6.2h2.7c.2,0,.3,0,.5.2.1.1.2.3.2.5s0,.3-.2.5-.3.2-.5.2Z"/>
    <path class="cls-2" d="M147,12.3h2.6c.1,0,.3,0,.6,0v-.9c0-.2,0-.3-.2-.5-.1-.1-.3-.2-.5-.2h-2.5c-.2,0-.3,0-.5-.2-.1-.1-.2-.3-.2-.5s0-.3.2-.5.3-.2.5-.2h2.5c.5,0,1,.2,1.4.6s.6.9.6,1.4l.2,5c0,.2,0,.3-.2.5-.1.1-.3.2-.5.2s-.4,0-.5-.2c-.1-.1-.2-.3-.2-.5l-1.1.7h-2.3c-.6,0-1-.2-1.4-.6-.4-.4-.6-.9-.6-1.4v-.8c0-.6.2-1,.6-1.4.4-.4.9-.6,1.4-.6ZM150.3,14.9v-.6c0-.2-.1-.3-.2-.5s-.3-.2-.5-.2h-2.6c-.2,0-.3,0-.5.2s-.2.3-.2.5v.7c0,.2,0,.3.2.5.1.1.3.2.5.2h1.9l1.5-.8Z"/>
  </g>
</svg>