<svg width="78" height="19" viewBox="0 0 78 19" fill="none" xmlns="http://www.w3.org/2000/svg">
<g opacity="0.3">
<path d="M21.8582 5.88301H24.192L25.965 10.4282H25.9951L27.6363 5.88301H29.8121L27.0453 12.5766H24.7567L21.8582 5.88301Z" fill="#121212"/>
<path d="M36.2201 11.4179C35.8738 11.8389 35.4371 12.1664 34.9101 12.3967C34.3831 12.627 33.8335 12.7422 33.2689 12.7422C32.7306 12.7422 32.2262 12.6594 31.7481 12.4939C31.2738 12.3284 30.8597 12.0908 30.5097 11.7849C30.1596 11.4791 29.8848 11.1084 29.6815 10.6765C29.4782 10.2447 29.3804 9.76247 29.3804 9.22987C29.3804 8.69726 29.482 8.21503 29.6815 7.78319C29.8848 7.35134 30.1596 6.98067 30.5097 6.67478C30.8597 6.36889 31.2738 6.13138 31.7481 5.96584C32.2224 5.8003 32.7306 5.71753 33.2689 5.71753C33.7695 5.71753 34.2212 5.8003 34.6316 5.96584C35.0381 6.13138 35.3844 6.36889 35.6705 6.67478C35.9528 6.98427 36.1711 7.35134 36.3255 7.78319C36.4798 8.21503 36.5551 8.69726 36.5551 9.22987V9.87763H31.5373C31.6239 10.2735 31.8121 10.5866 32.0982 10.8205C32.388 11.0544 32.7419 11.1732 33.1635 11.1732C33.5173 11.1732 33.8185 11.0976 34.0631 10.9464C34.3078 10.7953 34.5224 10.601 34.7031 10.3599L36.2201 11.4179ZM34.3906 8.47054C34.4019 8.12146 34.2815 7.82277 34.0293 7.57446C33.7808 7.32615 33.4571 7.2038 33.0656 7.2038C32.8247 7.2038 32.6139 7.23978 32.4332 7.31535C32.2525 7.38733 32.0944 7.48449 31.9664 7.59605C31.8385 7.71121 31.7368 7.84436 31.6653 7.99551C31.5938 8.14666 31.5524 8.305 31.5411 8.47054H34.3906Z" fill="#121212"/>
<path d="M37.1418 5.88307H39.3025V6.95548H39.3327C39.5623 6.54163 39.8371 6.23214 40.1533 6.02702C40.4695 5.82189 40.8685 5.71753 41.3503 5.71753C41.4745 5.71753 41.5988 5.72113 41.723 5.73192C41.8472 5.74272 41.9639 5.76071 42.0693 5.7859V7.67163C41.915 7.62484 41.7644 7.59245 41.6138 7.56726C41.4632 7.54567 41.3089 7.53128 41.147 7.53128C40.733 7.53128 40.4092 7.58526 40.1683 7.69682C39.9274 7.80838 39.743 7.95952 39.615 8.15745C39.487 8.35538 39.4004 8.5929 39.3628 8.8664C39.3251 9.1435 39.3063 9.44579 39.3063 9.77687V12.5731H37.1456V5.88307H37.1418Z" fill="#121212"/>
<path d="M42.4263 3.77405C42.4263 3.44297 42.5505 3.16227 42.7952 2.92836C43.0398 2.69444 43.3335 2.57568 43.6798 2.57568C44.0261 2.57568 44.3197 2.69444 44.5644 2.92836C44.8091 3.16227 44.9333 3.44297 44.9333 3.77405C44.9333 4.10513 44.8091 4.38583 44.5644 4.61975C44.3197 4.85366 44.0261 4.97242 43.6798 4.97242C43.3335 4.97242 43.0398 4.85366 42.7952 4.61975C42.5505 4.38943 42.4263 4.10513 42.4263 3.77405ZM42.5994 5.88289H44.7601V12.5765H42.5994V5.88289Z" fill="#121212"/>
<path d="M46.777 7.53481H45.3503V5.883H46.777V4.69903C46.777 4.33196 46.8109 3.98648 46.8786 3.659C46.9464 3.33152 47.0744 3.04722 47.2664 2.79891C47.4583 2.5506 47.7331 2.35627 48.0945 2.21232C48.4559 2.06838 48.9264 2 49.5136 2C49.7357 2 49.9503 2.0108 50.1611 2.02879C50.3719 2.04678 50.5789 2.07917 50.7822 2.12595L50.6806 3.87492C50.5563 3.82814 50.4397 3.79575 50.3343 3.77056C50.2289 3.74897 50.1084 3.73458 49.9729 3.73458C49.6266 3.73458 49.3668 3.80655 49.1937 3.9469C49.0205 4.09085 48.9339 4.38234 48.9339 4.82138V5.883H50.5338V7.53481H48.9339V12.573H46.7732V7.53481H46.777Z" fill="#121212"/>
<path d="M54.5242 13.6634C54.3811 14.0197 54.2419 14.3363 54.1063 14.6134C53.9708 14.8905 53.8014 15.1209 53.5944 15.308C53.3874 15.4951 53.1276 15.6391 52.8077 15.7362C52.4915 15.8334 52.0736 15.8802 51.5542 15.8802C50.997 15.8802 50.4587 15.7974 49.9393 15.6319L50.2291 13.9369C50.5566 14.0736 50.8916 14.142 51.238 14.142C51.4789 14.142 51.6746 14.1168 51.8289 14.0664C51.9833 14.0161 52.1113 13.9441 52.2091 13.8469C52.3108 13.7498 52.3936 13.6346 52.4613 13.4943C52.5291 13.3575 52.6006 13.1956 52.6759 13.012L52.834 12.627L49.7661 5.87939H52.1L53.8993 10.2986H53.9294L55.469 5.87939H57.6862L54.5242 13.6634Z" fill="#121212"/>
<path d="M58.0715 5.88307H60.1457V6.79354H60.1758C60.2435 6.66399 60.3376 6.53803 60.4656 6.40848C60.5898 6.27893 60.7404 6.16377 60.9136 6.06301C61.0867 5.96224 61.2825 5.87947 61.5046 5.81469C61.7267 5.74992 61.9638 5.71753 62.2235 5.71753C62.7129 5.71753 63.1458 5.81469 63.526 6.00543C63.9062 6.19976 64.1923 6.50205 64.3843 6.9159C64.6327 6.48405 64.9376 6.17816 65.2914 5.99463C65.6453 5.8111 66.0819 5.71753 66.6014 5.71753C67.072 5.71753 67.4672 5.7931 67.7909 5.94425C68.1109 6.09539 68.3669 6.30052 68.5551 6.56323C68.7433 6.82593 68.875 7.13182 68.9579 7.48449C69.0407 7.83717 69.0821 8.21503 69.0821 8.62168V12.5731H66.9214V8.67926C66.9214 8.36618 66.8499 8.09987 66.7143 7.87315C66.5751 7.65003 66.3266 7.53488 65.9728 7.53488C65.7243 7.53488 65.5135 7.57446 65.3479 7.65363C65.1785 7.7328 65.0468 7.84077 64.9451 7.97752C64.8435 8.11427 64.772 8.27621 64.7306 8.45974C64.6892 8.64328 64.6666 8.83761 64.6666 9.03913V12.5767H62.5059V9.03913C62.5059 8.92038 62.5021 8.77283 62.4908 8.60009C62.4795 8.42735 62.4494 8.26181 62.3892 8.10347C62.3327 7.94873 62.2386 7.81557 62.1069 7.70401C61.9789 7.59245 61.7869 7.53847 61.5384 7.53847C61.2599 7.53847 61.034 7.58526 60.8609 7.68242C60.6877 7.77959 60.556 7.90914 60.4656 8.06748C60.3753 8.22943 60.3151 8.40936 60.2849 8.61089C60.2548 8.81242 60.2435 9.02474 60.2435 9.24426V12.5767H58.0828V5.88307H58.0715Z" fill="#121212"/>
<path d="M74.2007 13.6634C74.0577 14.0197 73.9184 14.3363 73.7829 14.6134C73.6473 14.8905 73.478 15.1209 73.2709 15.308C73.0639 15.4951 72.8041 15.6391 72.4842 15.7362C72.168 15.8334 71.7501 15.8802 71.2307 15.8802C70.6736 15.8802 70.1353 15.7974 69.6158 15.6319L69.9056 13.9369C70.2331 14.0736 70.5681 14.142 70.9145 14.142C71.1554 14.142 71.3511 14.1168 71.5055 14.0664C71.6598 14.0161 71.7878 13.9441 71.8857 13.8469C71.9873 13.7498 72.0701 13.6346 72.1379 13.4943C72.2056 13.3575 72.2771 13.1956 72.3524 13.012L72.5105 12.627L69.4426 5.87939H71.7765L73.5758 10.2986H73.6059L75.1455 5.87939H77.3627L74.2007 13.6634Z" fill="#121212"/>
</g>
<g opacity="0.3">
<path d="M9.02613 4.10303C5.8623 4.10859 3.30606 6.71254 3.31153 9.91612C3.31153 10.4713 3.39364 11.021 3.5469 11.554C3.5469 11.4818 3.5469 11.4152 3.5469 11.343C3.5469 9.06664 5.36419 7.22333 7.60842 7.22333C9.85266 7.22333 11.6699 9.06664 11.6699 11.343C11.6699 13.6194 9.85266 15.4627 7.60842 15.4627C7.53727 15.4627 7.47158 15.4627 7.40042 15.4627H7.38947C10.411 16.3844 13.6022 14.641 14.5053 11.5707C15.4085 8.50032 13.6952 5.26898 10.6683 4.35288C10.1373 4.19187 9.58445 4.10859 9.0316 4.10859L9.02613 4.10303Z" fill="#121212"/>
<path d="M9.70989 0C4.70141 0 0.639893 4.11968 0.639893 9.19988C0.639893 14.2801 4.70141 18.3998 9.70989 18.3998C14.7184 18.3998 18.7799 14.2801 18.7799 9.19988C18.7799 4.11968 14.7184 0 9.70989 0ZM9.0202 16.4343C7.31786 16.4399 5.68121 15.757 4.48246 14.5299L4.46057 14.5077C1.95906 11.9482 1.97548 7.8174 4.49341 5.28008C7.01681 2.74275 11.0893 2.75941 13.5908 5.31339C16.0923 7.87292 16.0759 12.0037 13.5579 14.541C12.3482 15.7514 10.7171 16.4343 9.0202 16.4343Z" fill="#121212"/>
</g>
</svg>
